<?xml version="1.0" encoding="utf-8"?>
<!-- Generator: Adobe Illustrator 16.0.0, SVG Export Plug-In . SVG Version: 6.00 Build 0)  -->
<!DOCTYPE svg PUBLIC "-//W3C//DTD SVG 1.1//EN" "http://www.w3.org/Graphics/SVG/1.1/DTD/svg11.dtd">
<svg version="1.1" id="Layer_1" xmlns="http://www.w3.org/2000/svg" xmlns:xlink="http://www.w3.org/1999/xlink" x="0px" y="0px"
	 width="241.685px" height="204.178px" viewBox="0 0 241.685 204.178" enable-background="new 0 0 241.685 204.178"
	 xml:space="preserve">
<path fill="#085D7C" d="M230.349,30.479c0,7.082-5.74,12.823-12.822,12.823H22.185c-7.082,0-12.823-5.741-12.823-12.823l0,0
	c0-7.082,5.741-12.823,12.823-12.823h195.342C224.608,17.656,230.349,23.397,230.349,30.479L230.349,30.479z"/>
<path fill="#085D7C" d="M230.349,102.886c0,7.082-5.74,12.822-12.822,12.822H22.185c-7.082,0-12.823-5.74-12.823-12.822l0,0
	c0-7.082,5.741-12.824,12.823-12.824h195.342C224.608,90.062,230.349,95.804,230.349,102.886L230.349,102.886z"/>
<path fill="#085D7C" d="M230.349,175.291c0,7.082-5.74,12.823-12.822,12.823H22.185c-7.082,0-12.823-5.741-12.823-12.823l0,0
	c0-7.082,5.741-12.823,12.823-12.823h195.342C224.608,162.468,230.349,168.209,230.349,175.291L230.349,175.291z"/>
</svg>
